<svg xmlns="http://www.w3.org/2000/svg" width="400" height="300" viewBox="0 0 400 300">
  <defs>
    <linearGradient id="bg" x1="0%" y1="0%" x2="100%" y2="100%">
      <stop offset="0%" stop-color="#0a0e14"/><stop offset="100%" stop-color="#111826"/>
    </linearGradient>
    <linearGradient id="g1" x1="0%" y1="0%" x2="100%" y2="100%">
      <stop offset="0%" stop-color="#22c55e"/><stop offset="100%" stop-color="#15803d"/>
    </linearGradient>
    <filter id="glow" x="-50%" y="-50%" width="200%" height="200%">
      <feGaussianBlur stdDeviation="6" result="b"/><feMerge><feMergeNode in="b"/><feMergeNode in="SourceGraphic"/></feMerge>
    </filter>
  </defs>
  <rect width="400" height="300" fill="url(#bg)"/>
  <g transform="translate(20,30)">
    <path d="M0 60 L0 220 Q0 240 20 240 L340 240 Q360 240 360 220 L360 90 Q360 70 340 70 L180 70 L155 30 Q145 15 125 15 L20 15 Q0 15 0 40 Z" fill="url(#g1)" filter="url(#glow)" opacity="0.95"/>
    <path d="M0 60 L0 220 Q0 240 20 240 L340 240 Q360 240 360 220 L360 90 Q360 70 340 70 L20 70 Q0 70 0 90 Z" fill="#4ade80" opacity="0.85"/>
    <g transform="translate(150,105)">
      <ellipse cx="30" cy="45" rx="20" ry="28" fill="#ffffff"/>
      <circle cx="24" cy="20" r="4" fill="#0a0e14"/>
      <circle cx="36" cy="20" r="4" fill="#0a0e14"/>
      <line x1="10" y1="30" x2="-8" y2="18" stroke="#ffffff" stroke-width="4"/>
      <line x1="10" y1="45" x2="-10" y2="45" stroke="#ffffff" stroke-width="4"/>
      <line x1="10" y1="60" x2="-8" y2="72" stroke="#ffffff" stroke-width="4"/>
      <line x1="50" y1="30" x2="68" y2="18" stroke="#ffffff" stroke-width="4"/>
      <line x1="50" y1="45" x2="70" y2="45" stroke="#ffffff" stroke-width="4"/>
      <line x1="50" y1="60" x2="68" y2="72" stroke="#ffffff" stroke-width="4"/>
    </g>
    <text x="180" y="290" font-family="Arial, sans-serif" font-size="30" font-weight="bold" fill="#bbf7d0" text-anchor="middle" letter-spacing="2">BUG BOUNTY</text>
  </g>
</svg>
