<svg xmlns="http://www.w3.org/2000/svg" width="1200" height="630" viewBox="0 0 1200 630">
  <defs>
    <radialGradient id="glowL" cx="50%" cy="50%" r="50%">
      <stop offset="0%" stop-color="#ff5c5c" stop-opacity="0.55"/>
      <stop offset="100%" stop-color="#ff5c5c" stop-opacity="0"/>
    </radialGradient>
    <radialGradient id="glowR" cx="50%" cy="50%" r="50%">
      <stop offset="0%" stop-color="#a855f7" stop-opacity="0.5"/>
      <stop offset="100%" stop-color="#a855f7" stop-opacity="0"/>
    </radialGradient>
    <pattern id="grid" width="34" height="34" patternUnits="userSpaceOnUse">
      <path d="M 34 0 L 0 0 0 34" fill="none" stroke="#1c2540" stroke-width="1"/>
    </pattern>
  </defs>

  <rect width="1200" height="630" fill="#070a14"/>
  <rect width="1200" height="630" fill="url(#grid)"/>
  <ellipse cx="230" cy="260" rx="340" ry="260" fill="url(#glowL)"/>
  <ellipse cx="980" cy="380" rx="340" ry="300" fill="url(#glowR)"/>

  <rect x="0" y="0" width="1200" height="6" fill="#ff5c5c"/>

  <text x="72" y="200" font-family="Consolas, monospace" font-size="52" font-weight="bold" fill="#ff5c5c">HYDRA</text>
  <text x="72" y="248" font-family="Consolas, monospace" font-size="52" font-weight="bold" fill="#f2f2f2">BRUTE-FORCE</text>

  <text x="72" y="300" font-family="Consolas, monospace" font-size="20" fill="#a9b4d0">SSH, FTP, SMB, RDP, HTTP-Form Attacks + Code Arsenal</text>

  <g font-family="Consolas, monospace" font-size="16" fill="#ff5c5c">
    <rect x="72" y="335" width="120" height="38" rx="19" fill="none" stroke="#ff5c5c" stroke-width="1.5"/>
    <text x="132" y="359" text-anchor="middle">SSH</text>

    <rect x="204" y="335" width="120" height="38" rx="19" fill="none" stroke="#ff5c5c" stroke-width="1.5"/>
    <text x="264" y="359" text-anchor="middle">FTP</text>

    <rect x="336" y="335" width="140" height="38" rx="19" fill="none" stroke="#ff5c5c" stroke-width="1.5"/>
    <text x="406" y="359" text-anchor="middle">SMB/RDP</text>

    <rect x="488" y="335" width="200" height="38" rx="19" fill="none" stroke="#ff5c5c" stroke-width="1.5"/>
    <text x="588" y="359" text-anchor="middle">HTTP-POST-FORM</text>

    <rect x="700" y="335" width="200" height="38" rx="19" fill="none" stroke="#ff5c5c" stroke-width="1.5"/>
    <text x="800" y="359" text-anchor="middle">CODE ARSENAL</text>
  </g>

  <line x1="30" y1="60" x2="30" y2="570" stroke="#2a3560" stroke-width="1.5"/>
  <line x1="1170" y1="60" x2="1170" y2="570" stroke="#2a3560" stroke-width="1.5"/>

  <text x="72" y="592" font-family="Consolas, monospace" font-size="17" fill="#5d6b91">RECON NOTES  //  LAB PRACTICE ONLY</text>
  <text x="1128" y="592" font-family="Consolas, monospace" font-size="17" fill="#ff5c5c" text-anchor="end">AUTHORIZED USE ONLY</text>
</svg>
