<svg xmlns="http://www.w3.org/2000/svg" width="1200" height="630" viewBox="0 0 1200 630">
  <defs>
    <radialGradient id="glowL" cx="50%" cy="50%" r="50%">
      <stop offset="0%" stop-color="#a855f7" stop-opacity="0.55"/>
      <stop offset="100%" stop-color="#a855f7" stop-opacity="0"/>
    </radialGradient>
    <radialGradient id="glowR" cx="50%" cy="50%" r="50%">
      <stop offset="0%" stop-color="#ffd54a" stop-opacity="0.45"/>
      <stop offset="100%" stop-color="#ffd54a" stop-opacity="0"/>
    </radialGradient>
    <pattern id="grid" width="34" height="34" patternUnits="userSpaceOnUse">
      <path d="M 34 0 L 0 0 0 34" fill="none" stroke="#1c2540" stroke-width="1"/>
    </pattern>
  </defs>

  <rect width="1200" height="630" fill="#070a14"/>
  <rect width="1200" height="630" fill="url(#grid)"/>
  <ellipse cx="230" cy="260" rx="340" ry="260" fill="url(#glowL)"/>
  <ellipse cx="980" cy="380" rx="340" ry="300" fill="url(#glowR)"/>

  <rect x="0" y="0" width="1200" height="6" fill="#d09dff"/>

  <text x="72" y="200" font-family="Consolas, monospace" font-size="52" font-weight="bold" fill="#d09dff">OTP BYPASS</text>
  <text x="72" y="248" font-family="Consolas, monospace" font-size="52" font-weight="bold" fill="#f2f2f2">ADVANCED</text>

  <text x="72" y="300" font-family="Consolas, monospace" font-size="20" fill="#a9b4d0">Brute Force, Race Condition, Response Tampering + Code Arsenal</text>

  <g font-family="Consolas, monospace" font-size="16" fill="#d09dff">
    <rect x="72" y="335" width="170" height="38" rx="19" fill="none" stroke="#d09dff" stroke-width="1.5"/>
    <text x="157" y="359" text-anchor="middle">BRUTE FORCE</text>

    <rect x="256" y="335" width="200" height="38" rx="19" fill="none" stroke="#d09dff" stroke-width="1.5"/>
    <text x="356" y="359" text-anchor="middle">RACE CONDITION</text>

    <rect x="470" y="335" width="200" height="38" rx="19" fill="none" stroke="#d09dff" stroke-width="1.5"/>
    <text x="570" y="359" text-anchor="middle">RESPONSE TAMPER</text>

    <rect x="684" y="335" width="140" height="38" rx="19" fill="none" stroke="#d09dff" stroke-width="1.5"/>
    <text x="754" y="359" text-anchor="middle">NULL OTP</text>

    <rect x="838" y="335" width="200" height="38" rx="19" fill="none" stroke="#d09dff" stroke-width="1.5"/>
    <text x="938" y="359" text-anchor="middle">CODE ARSENAL</text>
  </g>

  <line x1="30" y1="60" x2="30" y2="570" stroke="#2a3560" stroke-width="1.5"/>
  <line x1="1170" y1="60" x2="1170" y2="570" stroke="#2a3560" stroke-width="1.5"/>

  <text x="72" y="592" font-family="Consolas, monospace" font-size="17" fill="#5d6b91">RECON NOTES  //  LAB PRACTICE ONLY</text>
  <text x="1128" y="592" font-family="Consolas, monospace" font-size="17" fill="#ff5c5c" text-anchor="end">AUTHORIZED USE ONLY</text>
</svg>
